<svg xmlns="http://www.w3.org/2000/svg" viewBox="0 0 1200 800" fill="none">
  <rect width="1200" height="800" fill="#1B3A5C"/>
  <g opacity="0.08">
    <pattern id="grid" width="60" height="60" patternUnits="userSpaceOnUse">
      <circle cx="30" cy="30" r="1.5" fill="white"/>
    </pattern>
    <rect width="1200" height="800" fill="url(#grid)"/>
  </g>
  <g transform="translate(600,360)">
    <rect x="-200" y="-120" width="400" height="240" rx="6" fill="none" stroke="#fec007" stroke-width="4"/>
    <rect x="-120" y="-80" width="80" height="80" rx="3" fill="none" stroke="#fec007" stroke-width="3" opacity="0.6"/>
    <rect x="-20" y="-80" width="80" height="80" rx="3" fill="none" stroke="#fec007" stroke-width="3" opacity="0.6"/>
    <rect x="-120" y="0" width="80" height="80" rx="3" fill="none" stroke="#fec007" stroke-width="3" opacity="0.6"/>
    <rect x="-20" y="0" width="80" height="80" rx="3" fill="none" stroke="#fec007" stroke-width="3" opacity="0.6"/>
  </g>
  <g transform="translate(380,360)">
    <path d="M0-140 L20-100 L60-100 L30-70 L40-30 L0-50 L-40-30 L-30-70 L-60-100 L-20-100 Z" fill="#fec007" opacity="0.4"/>
  </g>
  <text x="600" y="580" text-anchor="middle" fill="white" font-size="28" font-weight="bold" font-family="system-ui">Stemmarbeiten</text>
  <text x="600" y="610" text-anchor="middle" fill="#fec007" font-size="16" font-family="system-ui">Ausstemmen &amp; Mauerdurchbrüche</text>
</svg>
